<svg data-v-fde0c5aa="" xmlns="http://www.w3.org/2000/svg" viewBox="0 0 300 300" class="iconLeft"><!----><defs data-v-fde0c5aa=""><!----></defs><rect data-v-fde0c5aa="" fill="transparent" x="0" y="0" width="300px" height="300px" class="logo-background-square"></rect><defs data-v-fde0c5aa=""><!----></defs><g data-v-fde0c5aa="" id="cfe30645-b6de-4585-ae97-90d5ef0aaaab" fill="#000000" transform="matrix(3.554309589559612,0,0,3.554309589559612,114.69981636903034,119.05973614146933)"><path d="M1.37 4.36L1.37 13.33C2.47 13.55 3.76 13.70 5.02 13.70C7.97 13.70 9.76 11.59 9.76 8.89C9.76 5.93 7.36 4.36 4.69 4.36ZM3.27 6.14L4.62 6.14C6.40 6.14 7.82 7.12 7.82 8.96C7.82 10.66 6.85 11.91 4.96 11.91C4.44 11.91 3.81 11.87 3.27 11.76ZM18.65 13.52L21.04 6.62L19.15 6.62L17.88 10.71L16.41 6.62L15.16 6.62L13.67 10.71L12.40 6.62L10.51 6.62L12.89 13.52L14.16 13.52L15.78 9.05L17.39 13.52ZM28.52 9.87C28.52 7.86 27.30 6.44 25.27 6.44C23.24 6.44 21.77 8.13 21.77 10.14C21.77 12.22 23.43 13.73 25.47 13.73C26.52 13.73 27.26 13.38 27.64 13.10L27.64 11.53C27.22 11.80 26.55 12.15 25.54 12.15C24.49 12.15 23.71 11.54 23.52 10.60L28.52 10.60ZM23.54 9.46C23.75 8.54 24.35 7.96 25.22 7.96C26.02 7.96 26.78 8.46 26.85 9.46ZM31.84 13.52L31.84 3.68L30.11 3.68L30.11 13.52ZM37.17 6.44C35.16 6.44 33.48 8.04 33.48 10.09C33.48 12.13 35.16 13.73 37.17 13.73C39.18 13.73 40.88 12.13 40.88 10.09C40.88 8.04 39.18 6.44 37.17 6.44ZM37.17 8.12C38.16 8.12 39.03 8.83 39.03 10.09C39.03 11.35 38.16 12.04 37.17 12.04C36.19 12.04 35.33 11.35 35.33 10.09C35.33 8.83 36.19 8.12 37.17 8.12Z"></path></g><defs data-v-fde0c5aa=""><!----></defs><g data-v-fde0c5aa="" id="0140de17-6228-4579-9faf-469118c48f4e" stroke="none" fill="#01696E" transform="matrix(0.8118197624838449,0,0,0.8118197624838449,32.6936221376454,109.40874864384436)"><path d="M54.092 17.28L31.188 40.282c-.572.555-.08 1.738.716 1.719h5.975v7.812l-5.322-4.593c-.596-.373-.861-.154-1.369.062l-16.929 17c-.572.555-.08 1.738.716 1.719h2.987v17H9v2h9.958c.117 0 .233-.022.343-.062l71.699-27-.685-1.875-6.628 2.5V54h.996c.795.02 1.287-1.163.716-1.719l-2.708-2.719V45c0-.524-.474-1-.996-1h-2.987c-.522 0-.996.476-.996 1v.375l-2.552-1.281c-.46-.245-.687.01-1.058.125l-3.36 2.687V42h6.97c.795.019 1.288-1.164.716-1.72l-8.683-8.718V21c0-.524-.474-1-.995-1h-5.975c-.522 0-.996.476-.996 1v2.562l-6.255-6.281c-.712-.49-.807-.24-1.432 0zM50.825 38h2.987v4.5h-2.987zm4.979 0h2.987v4.5h-2.987zm-4.98 6.5h2.988V50h-2.987zm4.98 0h2.987V50h-2.987zm23.9 1.5h.995v4c0 .254.105.505.28.687l1.339 1.376c-.369.15-.627.538-.623.937v4.313l-10.954 4.125v-11.97l4.14-3.312 3.391 1.719c.597.292 1.416-.209 1.432-.875zm-47.738 1.344l5.913 5.125v21.344l-17.925 6.75V63c0-.523-.474-1-.996-1h-1.587zM73.542 50a1.033 1.033 0 00-.81 1v5c0 .524.475 1 .997 1h4.979c.521 0 .996-.476.996-1v-5c0-.524-.475-1-.996-1h-5.166zm1.183 2h.995v1h-.995zm1.991 0h.996v1h-.996zm-1.991 2h.995v1h-.995zm1.991 0h.996v1h-.996zm-48.982 5a1.033 1.033 0 00-.81 1v11c0 .524.475 1 .997 1h6.97c.522 0 .996-.476.996-1V60c0-.524-.474-1-.996-1h-7.157zm1.183 2h1.493v3.5h-1.493zm3.485 0h1.494v3.5h-1.494zm-3.485 5.5h1.493V70h-1.493zm3.485 0h1.494V70h-1.494z" style="text-indent:0;text-transform:none;block-progression:tb" overflow="visible" color="#000"></path></g><!----></svg>